<?xml version="1.0" encoding="utf-8"?>
<!-- Generator: Adobe Illustrator 24.0.1, SVG Export Plug-In . SVG Version: 6.00 Build 0)  -->
<svg version="1.1" xmlns="http://www.w3.org/2000/svg" xmlns:xlink="http://www.w3.org/1999/xlink" x="0px" y="0px"
	 viewBox="0 0 1920 1080" style="enable-background:new 0 0 1920 1080;" xml:space="preserve">
<style type="text/css">
	.st0{fill:none;}
	.st1{fill:#4F4F4F;}
	.st2{font-family:'BebasNeue-Regular';}
	.st3{font-size:356px;}
	.st4{font-size:80px;}
	.st5{fill:#F90000;}
</style>
<g id="Camada_1">
	<rect x="459.57" y="350.78" class="st0" width="1261.22" height="567.35"/>
	<text transform="matrix(1 0 0 1 459.5715 599.9741)" class="st1 st2 st3">indesfer</text>
	<rect x="472.78" y="618.08" class="st0" width="1036.73" height="73.47"/>
	<text transform="matrix(1 0 0 1 472.7755 674.0815)" class="st1 st2 st4">indústria  e estampagem de ferragens</text>
</g>
<g id="Camada_2">
	<path class="st5" d="M626.66,196.14c-12.39,0.29-24.77,0.58-37.16,0.86c0.02-2.26-0.26-6.45-2.59-10.95
		c-1.44-2.77-3.18-4.75-4.54-6.05c7.75-8.74,15.51-17.47,23.26-26.21c-2.98-3.29-6.78-6.99-11.52-10.66
		c-5.3-4.1-10.39-7.07-14.69-9.22c-8.64,7.2-17.28,14.4-25.92,21.6c-2.2-1.03-5.22-2.18-8.93-2.88c-3.77-0.71-7.05-0.74-9.51-0.58
		c-0.58-8.93-1.15-17.86-1.73-26.79c-5.09,0.03-11.02,0.4-17.57,1.44c-6.48,1.03-12.18,2.5-16.99,4.03
		c-1.73,9.03-3.46,18.05-5.18,27.08l-19.01,8.93l-19.01-14.4l-24.77,25.35l14.11,19.59L435.98,214l-27.08,5.18l-5.18,32.26h26.5
		l4.9,17.28l-21.03,24.2c1.86,3.39,4.3,7.24,7.49,11.23c4.27,5.35,8.66,9.41,12.39,12.39c9.03-6.82,18.05-13.63,27.08-20.45
		c2.62,1.36,5.46,2.73,8.54,4.05c2.53,1.08,4.97,2.03,7.31,2.87c0,10.75,0,21.51,0,32.26c5.13,1.1,11.68,2.04,19.3,2.02
		c7.36-0.02,13.71-0.94,18.72-2.02c1.82-11.04,3.65-22.08,5.47-33.13c3.34-0.85,7.15-2.05,11.23-3.74
		c3.99-1.66,7.45-3.46,10.37-5.18c8.45,6.82,16.9,13.63,25.35,20.45c5.85-3.92,12.35-8.85,19.01-14.98
		c5.27-4.85,9.76-9.65,13.54-14.11c-7.68-8.07-15.36-16.13-23.04-24.2c1.98-2.44,4.27-5.7,6.34-9.79c2.01-3.99,3.25-7.67,4.03-10.66
		c12.39-1.92,24.77-3.84,37.16-5.76c1-2.93,1.91-6.2,2.59-9.79C629.09,213.05,628.09,203.18,626.66,196.14z M548.6,227.83
		c-5.32,22.64-30.48,46.48-55.59,40.33c-12.23-2.99-23.96-12.97-27.36-25.92c-6.59-25.08,20.28-52.89,45.8-55.59
		c2.78-0.29,22.44-2.07,32.84,11.52C552.92,209.45,549.51,223.98,548.6,227.83z"/>
</g>
</svg>
