<?xml version="1.0" encoding="utf-8"?>
<!-- Generator: Adobe Illustrator 24.0.1, SVG Export Plug-In . SVG Version: 6.00 Build 0)  -->
<svg version="1.1" id="Camada_1" xmlns="http://www.w3.org/2000/svg" xmlns:xlink="http://www.w3.org/1999/xlink" x="0px" y="0px"
	 viewBox="0 0 500 500" style="enable-background:new 0 0 500 500;" xml:space="preserve">
<style type="text/css">
	.st0{fill:#F90000;}
</style>
<path class="st0" d="M491.92,173.21c-27.06,0.63-54.13,1.26-81.2,1.89c0.04-4.94-0.58-14.1-5.66-23.92
	c-3.14-6.05-6.96-10.39-9.91-13.22c16.94-19.09,33.88-38.18,50.83-57.28c-6.51-7.18-14.82-15.28-25.18-23.29
	c-11.59-8.96-22.7-15.45-32.1-20.14c-18.88,15.74-37.77,31.47-56.65,47.21c-4.82-2.25-11.41-4.76-19.51-6.29
	c-8.25-1.56-15.41-1.61-20.77-1.26c-1.26-19.51-2.52-39.02-3.78-58.54c-11.12,0.06-24.09,0.87-38.39,3.15
	c-14.16,2.25-26.62,5.46-37.14,8.81c-3.78,19.72-7.55,39.44-11.33,59.17l-41.54,19.51l-41.54-31.47l-54.13,55.39l30.84,42.8
	l-19.51,36.51l-59.17,11.33l-11.33,70.5h57.91l10.7,37.77L27.41,384.7c4.07,7.41,9.4,15.83,16.36,24.55
	c9.34,11.69,18.92,20.55,27.07,27.07c19.72-14.9,39.44-29.79,59.17-44.69c5.72,2.98,11.94,5.97,18.65,8.84
	c5.52,2.37,10.86,4.44,15.96,6.26c0,23.5,0,47,0,70.49c11.2,2.4,25.52,4.46,42.17,4.41c16.09-0.05,29.96-2.06,40.91-4.41
	c3.99-24.13,7.97-48.26,11.96-72.38c7.3-1.87,15.62-4.48,24.55-8.18c8.72-3.62,16.29-7.56,22.66-11.33
	c18.46,14.9,36.93,29.79,55.39,44.69c12.78-8.57,26.99-19.33,41.54-32.73c11.52-10.61,21.32-21.08,29.58-30.84
	c-16.78-17.62-33.57-35.25-50.35-52.87c4.34-5.34,9.34-12.45,13.85-21.4c4.39-8.71,7.1-16.75,8.81-23.29
	c27.06-4.2,54.13-8.39,81.2-12.59c2.19-6.4,4.18-13.55,5.66-21.4C497.23,210.15,495.05,188.58,491.92,173.21z M321.34,242.45
	c-11.62,49.48-66.6,101.56-121.48,88.12c-26.72-6.54-52.36-28.35-59.79-56.65c-14.4-54.8,44.31-115.58,100.08-121.48
	c6.07-0.64,49.03-4.53,71.75,25.18C330.78,202.28,323.32,234.02,321.34,242.45z"/>
</svg>
